# Blender v2.79 (sub 0) OBJ File: ''
# www.blender.org
mtllib cabinet_padded.mtl
o Cube.001
v -0.450500 -0.222500 0.736000
v -0.450500 0.222500 0.716000
v -0.450500 -0.222500 0.716000
v -0.450500 0.222500 0.736000
v 0.450500 0.222500 0.716000
v 0.450500 0.222500 0.736000
v 0.450500 -0.222500 0.716000
v 0.450500 -0.222500 0.736000
vn -1.0000 0.0000 0.0000
vn 0.0000 1.0000 0.0000
vn 1.0000 0.0000 0.0000
vn 0.0000 -1.0000 0.0000
vn 0.0000 0.0000 -1.0000
vn 0.0000 0.0000 1.0000
usemtl None
s 1
f 1//1 2//1 3//1
f 4//2 5//2 2//2
f 6//3 7//3 5//3
f 8//4 3//4 7//4
f 5//5 3//5 2//5
f 4//6 8//6 6//6
f 1//1 4//1 2//1
f 4//2 6//2 5//2
f 6//3 8//3 7//3
f 8//4 1//4 3//4
f 5//5 7//5 3//5
f 4//6 1//6 8//6
o Cube_Cube.000
v -0.450500 -0.145500 1.076000
v -0.450500 0.222500 1.056000
v -0.450500 -0.145500 1.056000
v -0.450500 0.222500 1.076000
v 0.450500 0.222500 1.056000
v 0.450500 0.222500 1.076000
v 0.450500 -0.145500 1.056000
v 0.450500 -0.145500 1.076000
v -0.450500 0.222500 1.096179
v 0.450500 0.222500 1.096179
v 0.450500 -0.145500 1.096179
v -0.450500 -0.145500 1.096179
v -0.450500 -0.145500 1.050065
v 0.450500 0.222500 1.050065
v 0.450500 -0.145500 1.050065
v -0.450500 0.222500 1.050065
v -0.450500 -0.160911 1.056000
v 0.450500 -0.160911 1.056000
v 0.450500 -0.160911 1.076000
v -0.450500 -0.160911 1.076000
v -0.450500 -0.160911 1.096179
v 0.450500 -0.160911 1.096179
vn -1.0000 0.0000 0.0000
vn 0.0000 1.0000 0.0000
vn 1.0000 0.0000 0.0000
vn -0.8944 0.0000 0.4472
vn -0.7071 -0.7071 0.0000
vn -0.5774 -0.5774 0.5774
vn 0.7071 0.7071 0.0000
vn 0.7071 -0.7071 0.0000
vn 0.7071 0.0000 -0.7071
vn 0.8944 0.0000 0.4472
vn 0.5774 -0.5774 0.5774
vn 0.0000 0.0000 1.0000
vn -0.7071 0.7071 0.0000
vn 0.0000 0.0000 -1.0000
vn 0.0000 -1.0000 0.0000
vn -0.7071 0.0000 -0.7071
usemtl None
s 1
f 9//7 10//7 11//7
f 12//8 13//8 10//8
f 14//9 15//9 13//9
f 20//10 9//7 28//11 29//12
f 13//13 15//14 23//14 22//13
f 15//15 16//9 27//9 26//15
f 9//7 12//7 10//7
f 12//8 14//8 13//8
f 14//9 16//9 15//9
f 16//9 19//16 30//17 27//14
f 15//14 11//11 21//11 23//14
f 16//9 14//13 18//13 19//16
f 17//18 19//18 18//18
f 17//18 20//18 19//18
f 12//19 9//7 20//10 17//19
f 14//13 12//19 17//19 18//13
f 22//20 21//20 24//20
f 22//20 23//20 21//20
f 11//11 10//19 24//19 21//11
f 10//19 13//13 22//13 24//19
f 27//21 25//21 26//21
f 28//11 27//14 30//17 29//12
f 27//21 28//21 25//21
f 11//22 15//15 26//15 25//22
f 9//7 11//22 25//22 28//7
f 19//16 20//10 29//12 30//17
o Cube.001_Cube.000
v -0.450500 -0.222500 0.716000
v -0.450500 0.222500 0.000000
v -0.450500 -0.222500 -0.000000
v -0.450500 0.222500 0.716000
v 0.450500 0.222500 0.000000
v 0.450500 0.222500 0.716000
v 0.450500 -0.222500 -0.000000
v 0.450500 -0.222500 0.716000
v -0.450500 -0.235271 -0.000000
v 0.450500 -0.235271 -0.000000
v 0.450500 -0.235271 0.716000
v -0.450500 -0.235271 0.716000
vn -1.0000 -0.0000 0.0000
vn 0.0000 1.0000 0.0000
vn 1.0000 -0.0000 0.0000
vn 0.7071 0.0000 -0.7071
vn 0.7071 0.0000 0.7071
vn 0.0000 0.0000 -1.0000
vn 0.0000 0.0000 1.0000
vn -0.7071 0.0000 0.7071
vn 0.0000 -1.0000 -0.0000
vn -0.7071 0.0000 -0.7071
usemtl None
s 1
f 31//23 32//23 33//23
f 34//24 35//24 32//24
f 36//25 37//25 35//25
f 37//26 38//27 41//27 40//26
f 35//28 33//28 32//28
f 34//29 38//29 36//29
f 31//23 34//23 32//23
f 34//24 36//24 35//24
f 36//25 38//25 37//25
f 38//27 31//30 42//30 41//27
f 35//28 37//28 33//28
f 34//29 31//29 38//29
f 41//31 39//31 40//31
f 41//31 42//31 39//31
f 33//32 37//26 40//26 39//32
f 31//30 33//32 39//32 42//30
o Cube.003_Cube.000
v -0.450500 0.205500 1.077000
v -0.450500 0.225500 0.737000
v -0.450500 0.205500 0.737000
v -0.450500 0.225500 1.077000
v 0.450500 0.225500 0.737000
v 0.450500 0.225500 1.077000
v 0.450500 0.205500 0.737000
v 0.450500 0.205500 1.077000
vn -1.0000 0.0000 0.0000
vn 0.0000 1.0000 0.0000
vn 1.0000 0.0000 0.0000
vn 0.0000 -1.0000 -0.0000
vn 0.0000 0.0000 -1.0000
vn 0.0000 0.0000 1.0000
usemtl None
s 1
f 43//33 44//33 45//33
f 46//34 47//34 44//34
f 48//35 49//35 47//35
f 50//36 45//36 49//36
f 47//37 45//37 44//37
f 46//38 50//38 48//38
f 43//33 46//33 44//33
f 46//34 48//34 47//34
f 48//35 50//35 49//35
f 50//36 43//36 45//36
f 47//37 49//37 45//37
f 46//38 43//38 50//38
o Cube.004_Cube.000
v -0.430500 -0.089500 0.823000
v -0.430500 0.204500 0.810000
v -0.430500 -0.089500 0.810000
v -0.430500 0.204500 0.823000
v -0.176500 0.204500 0.810000
v -0.176500 0.204500 0.823000
v -0.176500 -0.089500 0.810000
v -0.176500 -0.089500 0.823000
v -0.430500 -0.089500 0.801808
v -0.176500 0.204500 0.801808
v -0.176500 -0.089500 0.801808
v -0.430500 0.204500 0.801808
v -0.430500 -0.096312 0.810000
v -0.176500 -0.096312 0.810000
v -0.176500 -0.096312 0.823000
v -0.430500 -0.096312 0.823000
v -0.430500 -0.096312 0.801808
v -0.176500 -0.096312 0.801808
vn -1.0000 0.0000 0.0000
vn 0.0000 1.0000 0.0000
vn 1.0000 0.0000 0.0000
vn -0.8944 0.0000 -0.4472
vn 0.8944 0.0000 -0.4472
vn 0.5774 -0.5774 -0.5774
vn -0.5774 -0.5774 -0.5774
vn 0.7071 0.0000 0.7071
vn -0.7071 0.0000 0.7071
vn 0.0000 0.0000 1.0000
vn 0.7071 -0.7071 0.0000
vn -0.7071 0.7071 0.0000
vn 0.7071 0.7071 0.0000
vn 0.0000 0.0000 -1.0000
vn 0.0000 -1.0000 0.0000
vn -0.7071 -0.7071 0.0000
usemtl None
s 1
f 51//39 52//39 53//39
f 54//40 55//40 52//40
f 56//41 57//41 55//41
f 59//42 61//43 68//44 67//45
f 58//46 51//47 66//47 65//46
f 54//48 58//48 56//48
f 51//39 54//39 52//39
f 54//40 56//40 55//40
f 56//41 58//41 57//41
f 61//43 57//41 64//49 68//44
f 52//50 55//51 60//51 62//50
f 54//48 51//48 58//48
f 60//52 59//52 62//52
f 60//52 61//52 59//52
f 55//51 57//41 61//43 60//51
f 53//39 52//50 62//50 59//42
f 65//53 63//53 64//53
f 64//49 63//54 67//45 68//44
f 65//53 66//53 63//53
f 57//41 58//46 65//46 64//41
f 53//39 59//42 67//45 63//54
f 51//47 53//39 63//39 66//47
o Cube.005_Cube.000
v -0.430500 -0.089500 0.951000
v -0.430500 0.204500 0.938000
v -0.430500 -0.089500 0.938000
v -0.430500 0.204500 0.951000
v -0.176500 0.204500 0.938000
v -0.176500 0.204500 0.951000
v -0.176500 -0.089500 0.938000
v -0.176500 -0.089500 0.951000
v -0.430500 -0.089500 0.929114
v -0.176500 0.204500 0.929114
v -0.176500 -0.089500 0.929114
v -0.430500 0.204500 0.929114
v -0.430500 -0.095451 0.938000
v -0.176500 -0.095451 0.938000
v -0.176500 -0.095451 0.951000
v -0.430500 -0.095451 0.951000
v -0.430500 -0.095451 0.929114
v -0.176500 -0.095451 0.929114
vn -1.0000 0.0000 0.0000
vn 0.0000 1.0000 0.0000
vn 1.0000 0.0000 0.0000
vn -0.8944 0.0000 -0.4472
vn -0.5774 -0.5774 -0.5774
vn -0.7071 -0.7071 -0.0000
vn -0.7071 0.7071 0.0000
vn 0.7071 0.7071 0.0000
vn 0.0000 0.0000 1.0000
vn 0.7071 0.0000 0.7071
vn -0.7071 0.0000 0.7071
vn 0.0000 0.0000 -1.0000
vn 0.8944 0.0000 -0.4472
vn 0.7071 -0.7071 -0.0000
vn 0.5774 -0.5774 -0.5774
vn 0.0000 -1.0000 0.0000
usemtl None
s 1
f 69//55 70//55 71//55
f 72//56 73//56 70//56
f 74//57 75//57 73//57
f 71//55 77//58 85//59 81//60
f 70//61 73//62 78//62 80//61
f 72//63 76//63 74//63
f 69//55 72//55 70//55
f 72//56 74//56 73//56
f 74//57 76//57 75//57
f 76//64 69//65 84//65 83//64
f 71//55 70//61 80//61 77//58
f 72//63 69//63 76//63
f 78//66 77//66 80//66
f 78//66 79//66 77//66
f 79//67 75//57 82//68 86//69
f 73//62 75//57 79//67 78//62
f 83//70 81//70 82//70
f 83//70 84//70 81//70
f 82//68 81//60 85//59 86//69
f 77//58 79//67 86//69 85//59
f 75//57 76//64 83//64 82//57
f 69//65 71//55 81//55 84//65
o Cube.007_Cube.000
v -0.450000 -0.110280 1.068000
v -0.450000 0.222500 0.736000
v -0.450000 -0.222500 0.736000
v -0.450000 0.222500 1.068000
v -0.430000 0.222500 0.736000
v -0.430000 -0.111418 1.068000
v -0.430000 -0.222500 0.736000
v -0.430000 0.222500 1.068000
v -0.467153 -0.110280 1.068000
v -0.467153 0.222500 1.068000
v -0.467153 0.222500 0.736000
v -0.467153 -0.222500 0.736000
v -0.419419 0.222500 0.736000
v -0.419419 0.222500 1.068000
v -0.419419 -0.111418 1.068000
v -0.419419 -0.222500 0.736000
v -0.450270 -0.241485 0.742385
v -0.430270 -0.241485 0.742385
v -0.450270 -0.129265 1.074385
v -0.430270 -0.130403 1.074385
v -0.467423 -0.241485 0.742385
v -0.467423 -0.129265 1.074385
v -0.419688 -0.130403 1.074385
v -0.419688 -0.241485 0.742385
vn 0.0000 0.1608 0.9870
vn 0.0000 0.7071 0.7071
vn -0.4504 0.1507 0.8800
vn 0.0000 1.0000 0.0000
vn 0.0000 0.1622 0.9868
vn 0.4534 0.1374 0.8806
vn 0.0000 0.0000 -1.0000
vn -0.0000 0.0000 1.0000
vn 0.0181 0.3185 0.9478
vn 0.0000 0.7071 -0.7071
vn 0.0000 -0.1608 -0.9870
vn -0.4503 -0.1389 -0.8820
vn 0.0000 -0.1622 -0.9868
vn 0.4535 -0.1493 -0.8787
vn -0.5817 -0.3595 0.7297
vn 0.0000 -0.4403 0.8978
vn -1.0000 0.0000 0.0000
vn 0.5732 -0.7345 -0.3633
vn 0.0000 -0.8972 -0.4417
vn 1.0000 0.0000 0.0000
vn 0.0000 -0.3188 -0.9478
vn -0.0538 -0.9460 0.3198
vn 0.0000 -0.9483 0.3173
vn 0.0000 -0.8941 -0.4480
vn -0.5815 -0.7280 -0.3631
vn 0.0000 -0.4494 0.8933
vn 0.5730 -0.3669 0.7328
usemtl None
s 1
f 87//71 90//72 96//72 95//73
f 90//74 91//74 88//74
f 94//72 92//75 101//76 100//72
f 91//77 89//77 88//77
f 94//78 87//78 92//78
f 92//79 87//79 105//79 106//79
f 88//80 89//81 98//82 97//80
f 90//74 94//74 91//74
f 93//83 91//80 99//80 102//84
f 91//77 93//77 89//77
f 94//78 90//78 87//78
f 87//71 95//73 108//85 105//86
f 95//87 97//87 98//87
f 95//87 96//87 97//87
f 93//83 102//84 110//88 104//89
f 90//72 88//80 97//80 96//72
f 99//90 101//90 102//90
f 99//90 100//90 101//90
f 91//80 94//72 100//72 99//80
f 89//91 93//91 104//91 103//91
f 103//92 106//92 105//92
f 103//93 104//93 106//93
f 103//94 105//86 108//85 107//95
f 106//96 104//89 110//88 109//97
f 101//76 92//75 106//96 109//97
f 95//73 98//82 107//95 108//85
f 102//84 101//76 109//97 110//88
f 98//82 89//81 103//94 107//95
o Cube.008_Cube.000
v -0.176469 -0.089500 1.072810
v -0.176469 0.204500 0.730810
v -0.176469 -0.089500 0.730810
v -0.176469 0.204500 1.072810
v -0.163468 0.204500 0.730810
v -0.163468 0.204500 1.072810
v -0.163468 -0.089500 0.730810
v -0.163468 -0.089500 1.072810
v -0.185599 -0.089500 1.072810
v -0.185599 0.204500 1.072810
v -0.185599 0.204500 0.730810
v -0.185599 -0.089500 0.730810
v -0.163468 0.204500 1.072810
v -0.163468 -0.089500 0.730810
v -0.163468 0.204500 0.730810
v -0.153993 0.204500 1.072810
v -0.153993 -0.089500 1.072810
v -0.153993 -0.089500 0.730810
v -0.153993 0.204500 1.072810
v -0.153993 -0.089500 0.730810
v -0.153993 0.204500 0.730810
vn 0.0000 0.7071 -0.7071
vn 0.0000 -0.7071 -0.7071
vn 0.0000 1.0000 0.0000
vn 0.0000 0.0000 0.0000
vn 0.0000 0.4472 0.8944
vn 0.0000 -1.0000 -0.0000
vn 0.0000 0.0000 -1.0000
vn 0.0000 0.0000 1.0000
vn 0.0000 0.7071 0.7071
vn 0.0000 -0.7071 0.7071
vn 0.1797 0.0000 0.9837
vn -1.0000 0.0000 0.0000
vn 0.1982 0.4383 0.8767
vn 0.0000 -0.4472 0.8944
vn 0.4805 0.0000 0.8770
vn 0.1982 -0.4383 0.8767
vn 1.0000 0.0000 0.0000
usemtl None
s 1
f 112//98 113//99 122//99 121//98
f 114//100 115//100 112//100
f 115//101 116//101 123//102 125//101
f 118//103 113//103 117//103
f 115//104 113//104 112//104
f 114//105 118//105 116//105
f 114//106 112//98 121//98 120//106
f 114//100 116//100 115//100
f 116//101 118//107 127//107 126//108
f 118//103 111//103 113//103
f 115//104 117//104 113//104
f 114//105 111//105 118//105
f 119//109 121//109 122//109
f 119//109 120//109 121//109
f 111//107 114//106 120//106 119//107
f 113//99 111//107 119//107 122//99
f 123//102 116//101 126//108 129//110
f 117//111 115//101 125//101 124//105
f 117//111 124//105 130//112 128//113
f 126//108 127//114 128//113
f 129//110 130//112 131//114
f 126//108 128//113 130//112 129//110
f 124//105 125//98 131//98 130//112
f 118//107 117//111 128//113 127//107
f 125//98 123//102 129//110 131//98
o Cube.009_Cube.000
v 0.430000 -0.110280 1.068000
v 0.430000 0.222500 0.736000
v 0.430000 -0.222500 0.736000
v 0.430000 0.222500 1.068000
v 0.450000 0.222500 0.736000
v 0.450000 -0.111418 1.068000
v 0.450000 -0.222500 0.736000
v 0.450000 0.222500 1.068000
v 0.418065 -0.110280 1.068000
v 0.418065 0.222500 1.068000
v 0.418065 0.222500 0.736000
v 0.418065 -0.222500 0.736000
v 0.429732 -0.236644 0.740765
v 0.449732 -0.236644 0.740765
v 0.429732 -0.124424 1.072765
v 0.449732 -0.125562 1.072765
v 0.417797 -0.124424 1.072765
v 0.417797 -0.236644 0.740765
vn 0.0000 0.1608 0.9870
vn -0.4501 0.1531 0.8797
vn -0.5830 -0.3582 0.7292
vn 0.0000 -0.4388 0.8986
vn 0.0000 1.0000 0.0000
vn 1.0000 0.0000 0.0000
vn 0.0000 0.0000 -1.0000
vn -0.0000 0.0000 1.0000
vn 0.7106 -0.2367 -0.6626
vn 0.9998 -0.0170 0.0057
vn 0.7034 -0.2388 -0.6694
vn 0.0000 0.7071 0.7071
vn 0.0000 -0.3192 -0.9477
vn -1.0000 0.0000 0.0000
vn 0.0000 0.7071 -0.7071
vn 0.0000 -0.1608 -0.9870
vn -0.4496 -0.1374 -0.8826
vn 0.0000 -0.8935 -0.4490
vn -0.5829 -0.7269 -0.3631
vn -0.0538 -0.9460 0.3198
vn 0.0000 -0.9483 0.3173
vn 0.0181 0.3189 0.9476
usemtl None
s 1
f 132//115 140//116 148//117 146//118
f 135//119 136//119 133//119
f 136//120 137//120 138//120
f 136//121 134//121 133//121
f 139//122 132//122 137//122
f 138//123 137//124 147//124 145//125
f 132//115 135//126 141//126 140//116
f 135//119 139//119 136//119
f 136//120 139//120 137//120
f 136//121 138//121 134//121
f 139//122 135//122 132//122
f 134//127 138//123 145//125 144//127
f 140//128 142//128 143//128
f 140//128 141//128 142//128
f 135//126 133//129 142//129 141//126
f 133//129 134//130 143//131 142//129
f 144//132 146//118 148//117 149//133
f 144//134 147//134 146//134
f 144//135 145//135 147//135
f 137//136 132//136 146//136 147//136
f 140//116 143//131 149//133 148//117
f 143//131 134//130 144//132 149//133
