# Blender v2.79 (sub 0) OBJ File: 'cabinet_full.blend'
# www.blender.org
o Cube.009_Cube.011
v 0.430000 -0.222500 0.736000
v 0.430000 0.222500 0.736000
v 0.430000 0.222500 1.068000
v 0.450000 -0.222500 0.736000
v 0.450000 0.222500 0.736000
v 0.450000 0.222500 1.068000
v 0.430000 -0.110280 1.068000
v 0.450000 -0.111418 1.068000
vn -1.0000 0.0000 0.0000
vn 0.0000 1.0000 0.0000
vn 1.0000 0.0000 0.0000
vn 0.0000 0.0000 -1.0000
vn -0.0000 0.0000 1.0000
vn -0.0538 -0.9460 0.3197
vn 0.0000 -0.9483 0.3173
s off
f 7//1 2//1 1//1
f 3//2 5//2 2//2
f 5//3 8//3 4//3
f 5//4 1//4 2//4
f 6//5 7//5 8//5
f 1//6 8//6 7//6
f 7//1 3//1 2//1
f 3//2 6//2 5//2
f 5//3 6//3 8//3
f 5//4 4//4 1//4
f 6//5 3//5 7//5
f 1//7 4//7 8//7
o Cube.008_Cube.010
v -0.176469 -0.089500 0.730810
v -0.176469 -0.089500 1.072810
v -0.176469 0.204500 0.730810
v -0.176469 0.204500 1.072810
v -0.163468 -0.089500 0.730810
v -0.163468 -0.089500 1.072810
v -0.163468 0.204500 0.730810
v -0.163468 0.204500 1.072810
vn -1.0000 0.0000 0.0000
vn 0.0000 1.0000 0.0000
vn 1.0000 0.0000 0.0000
vn 0.0000 -1.0000 0.0000
vn 0.0000 0.0000 -1.0000
vn 0.0000 0.0000 1.0000
s off
f 10//8 11//8 9//8
f 12//9 15//9 11//9
f 16//10 13//10 15//10
f 14//11 9//11 13//11
f 15//12 9//12 11//12
f 12//13 14//13 16//13
f 10//8 12//8 11//8
f 12//9 16//9 15//9
f 16//10 14//10 13//10
f 14//11 10//11 9//11
f 15//12 13//12 9//12
f 12//13 10//13 14//13
o Cube.007_Cube.009
v -0.450000 -0.222500 0.736000
v -0.450000 0.222500 0.736000
v -0.450000 0.222500 1.068000
v -0.430000 -0.222500 0.736000
v -0.430000 0.222500 0.736000
v -0.430000 0.222500 1.068000
v -0.450000 -0.110280 1.068000
v -0.430000 -0.111418 1.068000
vn -1.0000 0.0000 0.0000
vn 0.0000 1.0000 0.0000
vn 1.0000 0.0000 0.0000
vn 0.0000 0.0000 -1.0000
vn -0.0000 0.0000 1.0000
vn -0.0538 -0.9460 0.3198
vn 0.0000 -0.9483 0.3173
s off
f 23//14 18//14 17//14
f 19//15 21//15 18//15
f 21//16 24//16 20//16
f 21//17 17//17 18//17
f 22//18 23//18 24//18
f 17//19 24//19 23//19
f 23//14 19//14 18//14
f 19//15 22//15 21//15
f 21//16 22//16 24//16
f 21//17 20//17 17//17
f 22//18 19//18 23//18
f 17//20 20//20 24//20
o Cube.005_Cube.007
v -0.430500 -0.089500 0.938000
v -0.430500 -0.089500 0.951000
v -0.430500 0.204500 0.938000
v -0.430500 0.204500 0.951000
v -0.176500 -0.089500 0.938000
v -0.176500 -0.089500 0.951000
v -0.176500 0.204500 0.938000
v -0.176500 0.204500 0.951000
vn -1.0000 0.0000 0.0000
vn 0.0000 1.0000 0.0000
vn 1.0000 0.0000 0.0000
vn 0.0000 -1.0000 0.0000
vn 0.0000 0.0000 -1.0000
vn 0.0000 0.0000 1.0000
s off
f 26//21 27//21 25//21
f 28//22 31//22 27//22
f 32//23 29//23 31//23
f 30//24 25//24 29//24
f 31//25 25//25 27//25
f 28//26 30//26 32//26
f 26//21 28//21 27//21
f 28//22 32//22 31//22
f 32//23 30//23 29//23
f 30//24 26//24 25//24
f 31//25 29//25 25//25
f 28//26 26//26 30//26
o Cube.004_Cube.006
v -0.430500 -0.089500 0.810000
v -0.430500 -0.089500 0.823000
v -0.430500 0.204500 0.810000
v -0.430500 0.204500 0.823000
v -0.176500 -0.089500 0.810000
v -0.176500 -0.089500 0.823000
v -0.176500 0.204500 0.810000
v -0.176500 0.204500 0.823000
vn -1.0000 0.0000 0.0000
vn 0.0000 1.0000 0.0000
vn 1.0000 0.0000 0.0000
vn 0.0000 -1.0000 0.0000
vn 0.0000 0.0000 -1.0000
vn 0.0000 0.0000 1.0000
s off
f 34//27 35//27 33//27
f 36//28 39//28 35//28
f 40//29 37//29 39//29
f 38//30 33//30 37//30
f 39//31 33//31 35//31
f 36//32 38//32 40//32
f 34//27 36//27 35//27
f 36//28 40//28 39//28
f 40//29 38//29 37//29
f 38//30 34//30 33//30
f 39//31 37//31 33//31
f 36//32 34//32 38//32
o Cube.003_Cube.005
v -0.450500 0.205500 0.737000
v -0.450500 0.205500 1.077000
v -0.450500 0.225500 0.737000
v -0.450500 0.225500 1.077000
v 0.450500 0.205500 0.737000
v 0.450500 0.205500 1.077000
v 0.450500 0.225500 0.737000
v 0.450500 0.225500 1.077000
vn -1.0000 0.0000 0.0000
vn 0.0000 1.0000 0.0000
vn 1.0000 0.0000 0.0000
vn 0.0000 -1.0000 0.0000
vn 0.0000 0.0000 -1.0000
vn 0.0000 0.0000 1.0000
s off
f 42//33 43//33 41//33
f 44//34 47//34 43//34
f 48//35 45//35 47//35
f 46//36 41//36 45//36
f 47//37 41//37 43//37
f 44//38 46//38 48//38
f 42//33 44//33 43//33
f 44//34 48//34 47//34
f 48//35 46//35 45//35
f 46//36 42//36 41//36
f 47//37 45//37 41//37
f 44//38 42//38 46//38
o Cube.001_Cube.004
v -0.450500 -0.222500 0.000000
v -0.450500 -0.222500 0.716000
v -0.450500 0.222500 0.000000
v -0.450500 0.222500 0.716000
v 0.450500 -0.222500 0.000000
v 0.450500 -0.222500 0.716000
v 0.450500 0.222500 0.000000
v 0.450500 0.222500 0.716000
vn -1.0000 0.0000 0.0000
vn 0.0000 1.0000 0.0000
vn 1.0000 0.0000 0.0000
vn 0.0000 -1.0000 0.0000
vn 0.0000 0.0000 -1.0000
vn 0.0000 0.0000 1.0000
s off
f 50//39 51//39 49//39
f 52//40 55//40 51//40
f 56//41 53//41 55//41
f 54//42 49//42 53//42
f 55//43 49//43 51//43
f 52//44 54//44 56//44
f 50//39 52//39 51//39
f 52//40 56//40 55//40
f 56//41 54//41 53//41
f 54//42 50//42 49//42
f 55//43 53//43 49//43
f 52//44 50//44 54//44
o Cube_Cube.003
v -0.450500 -0.145500 1.056000
v -0.450500 -0.145500 1.076000
v -0.450500 0.222500 1.056000
v -0.450500 0.222500 1.076000
v 0.450500 -0.145500 1.056000
v 0.450500 -0.145500 1.076000
v 0.450500 0.222500 1.056000
v 0.450500 0.222500 1.076000
vn -1.0000 0.0000 0.0000
vn 0.0000 1.0000 0.0000
vn 1.0000 0.0000 0.0000
vn 0.0000 -1.0000 0.0000
vn 0.0000 0.0000 -1.0000
vn 0.0000 0.0000 1.0000
s off
f 58//45 59//45 57//45
f 60//46 63//46 59//46
f 64//47 61//47 63//47
f 62//48 57//48 61//48
f 63//49 57//49 59//49
f 60//50 62//50 64//50
f 58//45 60//45 59//45
f 60//46 64//46 63//46
f 64//47 62//47 61//47
f 62//48 58//48 57//48
f 63//49 61//49 57//49
f 60//50 58//50 62//50
o Cube.002
v -0.450500 -0.222500 0.716000
v -0.450500 -0.222500 0.736000
v -0.450500 0.222500 0.716000
v -0.450500 0.222500 0.736000
v 0.450500 -0.222500 0.716000
v 0.450500 -0.222500 0.736000
v 0.450500 0.222500 0.716000
v 0.450500 0.222500 0.736000
vn -1.0000 0.0000 0.0000
vn 0.0000 1.0000 0.0000
vn 1.0000 0.0000 0.0000
vn 0.0000 -1.0000 0.0000
vn 0.0000 0.0000 -1.0000
vn 0.0000 0.0000 1.0000
s off
f 66//51 67//51 65//51
f 68//52 71//52 67//52
f 72//53 69//53 71//53
f 70//54 65//54 69//54
f 71//55 65//55 67//55
f 68//56 70//56 72//56
f 66//51 68//51 67//51
f 68//52 72//52 71//52
f 72//53 70//53 69//53
f 70//54 66//54 65//54
f 71//55 69//55 65//55
f 68//56 66//56 70//56
